<?xml version="1.0" encoding="iso-8859-1"?>
<!-- Generator: Adobe Illustrator 19.0.0, SVG Export Plug-In . SVG Version: 6.00 Build 0)  -->
<svg xmlns="http://www.w3.org/2000/svg" xmlns:xlink="http://www.w3.org/1999/xlink" version="1.1" id="Layer_1" x="0px" y="0px" viewBox="0 0 511.749 511.749" style="enable-background:new 0 0 511.749 511.749;" xml:space="preserve" width="30" height="30">
	<g>
		<path d="M255.875,122.01c8.824,0,16.003-7.179,16.003-16.003s-7.179-16.003-16.003-16.003s-16.003,7.179-16.003,16.003   S247.051,122.01,255.875,122.01z" />
		<path d="M255.875,182.012c-22.832,0-41.446,18.404-41.785,41.157h83.569C297.321,200.417,278.707,182.012,255.875,182.012z" />
		<path d="M51.317,0v511.749h409.116V0H51.317z M255.875,60.004c25.366,0,46.003,20.637,46.003,46.003s-20.637,46.003-46.003,46.003   s-46.003-20.637-46.003-46.003S230.509,60.004,255.875,60.004z M184.085,223.802c0-39.585,32.205-71.79,71.79-71.79   s71.79,32.205,71.79,71.79v29.368H184.085V223.802z M385.592,436.018H126.766v-30h258.825V436.018z M385.592,376.014H126.766v-30   h258.825V376.014z M385.592,313.173H126.766v-30h258.825V313.173z" />
	</g>


</svg>
